<?xml version="1.0" standalone="no"?>
<!DOCTYPE svg PUBLIC "-//W3C//DTD SVG 20010904//EN"
 "http://www.w3.org/TR/2001/REC-SVG-20010904/DTD/svg10.dtd">
<svg version="1.0" xmlns="http://www.w3.org/2000/svg"
 width="3840.000000pt" height="465.000000pt" viewBox="0 0 3840.000000 465.000000"
 preserveAspectRatio="xMidYMid meet">

<g transform="translate(0.000000,465.000000) scale(0.100000,-0.100000)"
fill="#000000" stroke="none">
<path d="M5973 4486 c-279 -104 -508 -403 -610 -796 -16 -60 -27 -136 -30
-207 l-6 -113 867 0 866 0 0 570 0 570 -512 -1 c-511 0 -513 0 -575 -23z"/>
<path d="M7540 3940 l0 -570 850 0 850 0 0 570 0 570 -850 0 -850 0 0 -570z"/>
<path d="M9710 3940 l0 -570 870 0 870 0 0 71 c0 86 -31 242 -71 362 -112 336
-324 588 -573 682 l-66 25 -515 0 -515 0 0 -570z"/>
<path d="M130 2320 l0 -2140 525 0 525 0 0 840 0 840 1583 2 1582 3 3 458 2
457 -1585 0 -1585 0 0 365 0 365 1840 0 1840 0 0 475 0 475 -2365 0 -2365 0 0
-2140z"/>
<path d="M12220 2320 l0 -2140 525 0 525 0 0 840 0 840 1253 -2 c1197 -3 1254
-4 1295 -22 54 -23 107 -85 121 -141 8 -30 11 -276 11 -779 l0 -736 505 0 505
0 0 693 c0 405 -5 721 -10 762 -24 167 -103 312 -208 382 -34 23 -67 43 -74
46 -8 2 12 31 53 73 154 162 252 366 278 579 22 179 8 659 -24 846 -60 349
-234 590 -530 734 -177 87 -374 133 -654 155 -86 6 -764 10 -1853 10 l-1718 0
0 -2140z m3610 1164 c55 -25 105 -80 120 -131 7 -24 10 -106 8 -224 l-3 -186
-30 -48 c-48 -78 -93 -96 -267 -106 -79 -4 -648 -8 -1265 -8 l-1123 -1 0 365
0 365 1258 -2 c1250 -3 1257 -3 1302 -24z"/>
<path d="M17550 3985 l0 -475 495 0 495 0 0 -1665 0 -1665 520 0 520 0 0 1665
0 1665 945 0 945 0 0 475 0 475 -1960 0 -1960 0 0 -475z"/>
<path d="M21990 2320 l0 -2140 520 0 520 0 0 2140 0 2140 -520 0 -520 0 0
-2140z"/>
<path d="M23820 2320 l0 -2140 525 0 525 0 0 1665 0 1665 1228 -2 1227 -3 63
-34 c76 -41 117 -91 146 -174 l21 -62 3 -1528 2 -1527 526 0 525 0 -4 1502
c-4 1642 -1 1556 -62 1787 -92 349 -256 596 -500 756 -133 87 -265 144 -428
184 -211 52 -163 51 -2044 51 l-1753 0 0 -2140z"/>
<path d="M29340 2320 l0 -2140 2115 0 2115 0 0 475 0 475 -1595 0 -1595 0 0
365 0 365 1103 2 1102 3 3 458 2 457 -1105 0 -1105 0 0 365 0 365 1585 0 1585
0 0 475 0 475 -2105 0 -2105 0 0 -2140z"/>
<path d="M34070 3985 l0 -475 495 0 495 0 0 -1665 0 -1665 520 0 520 0 0 1665
0 1665 950 0 950 0 0 475 0 475 -1965 0 -1965 0 0 -475z"/>
<path d="M5330 2325 l0 -565 865 0 865 0 0 565 0 565 -865 0 -865 0 0 -565z"/>
<path d="M9712 2323 l3 -568 868 -3 867 -2 0 570 0 570 -870 0 -870 0 2 -567z"/>
<path d="M5330 1191 c0 -108 20 -221 65 -357 102 -312 294 -554 526 -664 l64
-30 538 0 537 0 0 570 0 570 -865 0 -865 0 0 -89z"/>
<path d="M9717 1273 c-4 -3 -7 -260 -7 -570 l0 -563 544 0 545 0 75 39 c157
81 284 209 390 390 101 173 173 409 183 599 l6 112 -865 0 c-475 0 -868 -3
-871 -7z"/>
<path d="M7540 705 l0 -565 850 0 850 0 0 565 0 565 -850 0 -850 0 0 -565z"/>
<path d="M37654 1205 c-190 -41 -354 -205 -393 -393 -55 -262 98 -525 349
-603 95 -29 227 -28 318 4 215 75 352 267 352 492 0 138 -50 256 -149 356
-131 131 -301 182 -477 144z m268 -75 c81 -30 145 -77 201 -145 73 -92 91
-147 92 -285 0 -112 -1 -117 -36 -191 -138 -288 -513 -355 -736 -132 -82 82
-124 177 -131 294 -13 230 117 411 341 474 71 20 195 13 269 -15z"/>
<path d="M37570 715 l0 -285 35 0 34 0 3 123 3 122 118 0 c156 0 152 5 172
-187 l6 -58 44 0 43 0 -14 38 c-7 20 -13 63 -14 95 0 65 -19 120 -46 135 -16
9 -15 13 13 45 70 80 48 205 -43 243 -24 10 -80 14 -194 14 l-160 0 0 -285z
m309 214 c38 -13 51 -35 51 -88 0 -86 -26 -101 -180 -101 l-110 0 0 93 c0 52
3 97 7 100 11 11 198 8 232 -4z"/>
</g>
</svg>
